<svg width="457" height="428" viewBox="0 0 457 428" fill="none" xmlns="http://www.w3.org/2000/svg">
<path d="M289.425 144.144C320.596 117.607 320.596 74.5839 289.425 48.0479C258.255 21.5118 207.719 21.5118 176.549 48.0479C145.379 74.584 145.379 117.607 176.549 144.144C207.719 170.68 258.255 170.68 289.425 144.144Z" fill="#55A3F3"/>
<path d="M234.092 164.045C281.539 164.045 320.002 133.623 320.002 96.0948C320.002 58.5668 281.539 28.1443 234.092 28.1443C186.645 28.1443 148.182 58.5668 148.182 96.0948C148.182 133.623 186.645 164.045 234.092 164.045Z" stroke="#55A3F3" stroke-width="0.774" stroke-miterlimit="10"/>
<path d="M277.769 178.218L251.464 154.044L267.51 150.276L277.769 178.218Z" fill="#55A3F3"/>
<path d="M178.64 178.218L204.945 154.044L188.9 150.276L178.64 178.218Z" fill="#55A3F3"/>
<path d="M223.661 118.78V111.718C223.661 107.276 224.312 103.568 225.617 100.591C226.921 97.616 228.591 95.0607 230.626 92.9283C232.661 90.7968 234.72 88.8865 236.808 87.1984C239.627 84.9793 242.13 82.78 244.322 80.6022C246.514 78.426 247.61 75.561 247.61 72.0064C247.61 70.0532 247.034 68.4089 245.888 67.076C244.739 65.743 243.357 64.6999 241.739 63.9442C240.12 63.1902 238.53 62.8111 236.966 62.8111C233.938 62.8111 231.409 63.4107 229.374 64.6099C227.339 65.8091 225.668 67.3419 224.365 69.2075C223.059 71.0732 221.939 73.028 221 75.0713H216.736L203 67.8754C203.625 66.2765 204.722 64.2333 206.287 61.7458C207.853 59.2599 210.069 56.7723 212.94 54.2832C215.809 51.7973 219.409 49.7095 223.74 48.0205C228.069 46.3341 233.262 45.4884 239.315 45.4884C245.263 45.4884 250.609 46.3547 255.36 48.0874C260.106 49.8193 263.891 52.4852 266.708 56.0836C269.526 59.6811 270.935 64.4117 270.935 70.2754C270.935 75.1621 270.152 79.1164 268.586 82.135C267.02 85.156 265.089 87.7113 262.794 89.7974C260.497 91.8861 258.201 93.9516 255.907 95.994C254.131 97.5053 252.437 99.1711 250.82 100.991C249.2 102.812 247.924 104.922 246.985 107.321C246.045 109.719 245.576 112.607 245.576 115.983V118.781L223.661 118.78ZM234.618 146.898C230.862 146.898 227.782 146.032 225.383 144.299C222.981 142.567 221.783 140.281 221.783 137.436C221.783 134.684 223.008 132.373 225.461 130.506C227.912 128.641 230.964 127.708 234.618 127.708C238.269 127.708 241.271 128.642 243.619 130.506C245.966 132.373 247.14 134.684 247.14 137.436C247.14 140.281 245.99 142.567 243.696 144.299C241.4 146.031 238.374 146.898 234.618 146.898Z" fill="#2C54AC"/>
<path d="M219.398 118.78V111.718C219.398 107.276 220.048 103.568 221.355 100.591C222.659 97.616 224.328 95.0607 226.363 92.9283C228.399 90.7968 230.457 88.8865 232.546 87.1984C235.364 84.9793 237.868 82.78 240.059 80.6022C242.252 78.426 243.347 75.561 243.347 72.0064C243.347 70.0532 242.773 68.4089 241.625 67.076C240.476 65.743 239.094 64.6999 237.477 63.9442C235.858 63.1902 234.268 62.8111 232.702 62.8111C229.674 62.8111 227.145 63.4107 225.111 64.6099C223.077 65.8091 221.405 67.3419 220.102 69.2075C218.797 71.0732 217.676 73.028 216.737 75.0713L198.737 67.8754C199.363 66.2765 200.459 64.2333 202.024 61.7458C203.589 59.2599 205.805 56.7723 208.677 54.2832C211.545 51.7973 215.145 49.7095 219.477 48.0205C223.805 46.3341 228.998 45.4884 235.052 45.4884C240.999 45.4884 246.345 46.3547 251.096 48.0874C255.843 49.8193 259.627 52.4852 262.444 56.0836C265.262 59.6811 266.671 64.4117 266.671 70.2754C266.671 75.1621 265.888 79.1164 264.322 82.135C262.757 85.156 260.825 87.7113 258.531 89.7974C256.235 91.8861 253.937 93.9516 251.643 95.994C249.868 97.5053 248.173 99.1711 246.556 100.991C244.937 102.812 243.66 104.922 242.721 107.321C241.782 109.719 241.313 112.607 241.313 115.983V118.781L219.398 118.78ZM230.354 146.898C226.598 146.898 223.518 146.032 221.119 144.299C218.717 142.567 217.519 140.281 217.519 137.436C217.519 134.684 218.744 132.373 221.198 130.506C223.648 128.641 226.701 127.708 230.354 127.708C234.006 127.708 237.007 128.642 239.355 130.506C241.703 132.373 242.876 134.684 242.876 137.436C242.876 140.281 241.727 142.567 239.432 144.299C237.136 146.031 234.112 146.898 230.354 146.898Z" fill="white"/>
<path d="M123.118 104.641C127.366 81.5004 108.775 59.81 81.5936 56.1938C54.4125 52.5776 28.9344 68.4048 24.6867 91.545C20.439 114.685 39.0301 136.376 66.2112 139.992C93.3923 143.608 118.87 127.781 123.118 104.641Z" fill="#2C54AC"/>
<path d="M73.7302 140.499C103.765 140.499 128.113 121.512 128.113 98.0909C128.113 74.6696 103.765 55.683 73.7302 55.683C43.6955 55.683 19.3475 74.6696 19.3475 98.0909C19.3475 121.512 43.6955 140.499 73.7302 140.499Z" stroke="#2C54AC" stroke-width="0.9323" stroke-miterlimit="10"/>
<path d="M61.2898 137.056L69.6123 154.902L74.2775 137.056H61.2898Z" fill="#2C54AC"/>
<path d="M70.8296 112.484L69.9914 108.285C69.4647 105.643 69.4104 103.382 69.8343 101.499C70.2563 99.6179 70.946 97.9546 71.9035 96.5118C72.86 95.069 73.8583 93.7558 74.9001 92.5724C76.3126 91.0098 77.5407 89.4869 78.5855 88.0036C79.6303 86.5212 79.9417 84.7232 79.5197 82.609C79.2879 81.4478 78.7505 80.5187 77.9104 79.825C77.0683 79.1312 76.1225 78.6299 75.0718 78.3194C74.0193 78.0105 73.0288 77.9222 72.0985 78.0568C70.298 78.3169 68.8652 78.8917 67.7971 79.7796C66.729 80.6682 65.918 81.7228 65.3641 82.9443C64.8092 84.1666 64.3746 85.4252 64.0583 86.721L61.5225 87.0877L52.4987 83.9907C52.681 82.9856 53.0904 81.6766 53.7258 80.0628C54.3612 78.4499 55.3837 76.7791 56.7962 75.0522C58.2067 73.327 60.1003 71.7752 62.4751 70.3984C64.849 69.0233 67.8369 68.0736 71.4369 67.5525C74.9739 67.0404 78.2567 67.0958 81.2863 67.7176C84.3149 68.3395 86.8818 69.599 88.984 71.496C91.0872 73.3931 92.4861 76.0854 93.1826 79.5723C93.7627 82.4785 93.7666 84.8975 93.1942 86.8276C92.6219 88.7585 91.7759 90.4449 90.6594 91.8828C89.5418 93.3223 88.4204 94.7485 87.2989 96.16C86.422 97.2113 85.6119 98.3477 84.8669 99.57C84.1199 100.792 83.6116 102.157 83.338 103.664C83.0645 105.171 83.1275 106.929 83.5282 108.936L83.86 110.6L70.8296 112.484ZM80.6839 128.263C78.4497 128.586 76.5153 128.337 74.8836 127.513C73.249 126.688 72.2654 125.432 71.9278 123.741C71.6008 122.104 72.0548 120.624 73.2927 119.303C74.5286 117.983 76.233 117.166 78.4061 116.851C80.5771 116.538 82.4727 116.834 84.0908 117.741C85.709 118.649 86.681 119.922 87.0079 121.559C87.3455 123.25 86.9332 124.709 85.7749 125.937C84.6147 127.165 82.918 127.94 80.6839 128.263Z" fill="#55A3F3"/>
<path d="M68.2949 112.852L67.4568 108.652C66.9291 106.011 66.8757 103.75 67.2996 101.867C67.7216 99.9856 68.4114 98.3223 69.3688 96.8795C70.3254 95.4367 71.3236 94.1235 72.3655 92.94C73.7779 91.3775 75.0061 89.8546 76.0509 88.3713C77.0957 86.8888 77.4071 85.0909 76.9851 82.9767C76.7532 81.8155 76.2158 80.8864 75.3757 80.1926C74.5346 79.4989 73.5888 78.9976 72.5372 78.6871C71.4846 78.3782 70.4942 78.2898 69.5638 78.4245C67.7633 78.6846 66.3305 79.2586 65.2624 80.1472C64.1944 81.0359 63.3833 82.0905 62.8294 83.312C62.2745 84.5343 61.8399 85.7929 61.5237 87.0887L49.965 84.3584C50.1473 83.3533 50.5567 82.0443 51.1921 80.4305C51.8276 78.8176 52.85 77.1476 54.2625 75.4199C55.673 73.6947 57.5666 72.1428 59.9414 70.7661C62.3153 69.391 65.3032 68.4413 68.9032 67.9201C72.4402 67.4081 75.723 67.4634 78.7526 68.0853C81.7812 68.7072 84.3481 69.9667 86.4503 71.8637C88.5535 73.7607 89.9524 76.4531 90.6489 79.9399C91.229 82.8462 91.2329 85.2652 90.6605 87.1953C90.0882 89.1261 89.2423 90.8126 88.1257 92.2504C87.0081 93.6899 85.8867 95.1162 84.7653 96.5285C83.8883 97.5798 83.0783 98.7162 82.3332 99.9385C81.5862 101.161 81.0779 102.525 80.8043 104.032C80.5308 105.54 80.5938 107.298 80.9945 109.305L81.3263 110.969L68.2949 112.852ZM78.1492 128.63C75.9151 128.953 73.9807 128.704 72.349 127.88C70.7144 127.056 69.7307 125.799 69.3931 124.108C69.0662 122.471 69.5202 120.991 70.758 119.67C71.9939 118.35 73.6984 117.532 75.8714 117.218C78.0425 116.904 79.938 117.201 81.5562 118.108C83.1733 119.015 84.1463 120.289 84.4733 121.926C84.8108 123.617 84.3986 125.076 83.2403 126.304C82.0791 127.532 80.3824 128.306 78.1492 128.63Z" fill="white"/>
<path d="M415.872 138.537C438.387 128.174 446.771 104.236 434.599 85.0686C422.426 65.9015 394.308 58.7639 371.793 69.1264C349.279 79.4889 340.895 103.427 353.067 122.595C365.239 141.762 393.358 148.899 415.872 138.537Z" fill="#0A2A6B"/>
<path d="M441.652 116.764C449.207 95.9478 433.741 73.3932 407.107 66.3873C380.473 59.3814 352.757 70.5772 345.202 91.3937C337.647 112.21 353.113 134.765 379.747 141.771C406.381 148.777 434.097 137.581 441.652 116.764Z" stroke="#0A2A6B" stroke-width="1.321" stroke-miterlimit="10"/>
<path d="M392.458 141.416L379.303 155.332L380.915 138.379L392.458 141.416Z" fill="#0A2A6B"/>
<path d="M386.257 114.838L386.962 111.173C387.405 108.868 388.114 106.99 389.089 105.539C390.063 104.089 391.186 102.883 392.455 101.925C393.724 100.966 394.984 100.123 396.236 99.3982C397.92 98.4501 399.439 97.4904 400.795 96.5183C402.15 95.5479 403.005 94.1398 403.36 92.2948C403.555 91.2815 403.421 90.3862 402.958 89.6107C402.494 88.836 401.881 88.1943 401.118 87.6848C400.352 87.176 399.566 86.8647 398.753 86.7507C397.181 86.531 395.808 86.6599 394.633 87.1347C393.457 87.6096 392.436 88.2844 391.574 89.1581C390.71 90.0319 389.933 90.9652 389.242 91.9579L387.029 91.649L380.618 86.9192C381.103 86.1346 381.875 85.1535 382.936 83.9758C383.997 82.7989 385.395 81.6683 387.135 80.5839C388.872 79.5012 390.949 78.6778 393.366 78.1154C395.781 77.5538 398.561 77.4902 401.703 77.9287C404.789 78.359 407.478 79.1964 409.77 80.4394C412.06 81.6823 413.758 83.3398 414.861 85.4111C415.964 87.4824 416.223 90.0402 415.637 93.0835C415.149 95.6198 414.348 97.6159 413.233 99.0695C412.119 100.524 410.86 101.711 409.462 102.627C408.061 103.545 406.663 104.451 405.268 105.344C404.195 106 403.149 106.742 402.128 107.57C401.105 108.399 400.232 109.4 399.504 110.578C398.777 111.755 398.245 113.22 397.908 114.972L397.628 116.424L386.257 114.838ZM389.135 130.225C387.185 129.953 385.673 129.281 384.601 128.207C383.527 127.134 383.134 125.861 383.418 124.384C383.694 122.955 384.56 121.845 386.02 121.053C387.478 120.263 389.155 120 391.052 120.264C392.947 120.528 394.411 121.23 395.444 122.368C396.476 123.507 396.854 124.791 396.58 126.22C396.295 127.697 395.471 128.799 394.107 129.533C392.741 130.267 391.085 130.497 389.135 130.225Z" fill="#55A3F3"/>
<path d="M384.044 114.529L384.749 110.864C385.194 108.558 385.901 106.681 386.877 105.23C387.851 103.78 388.972 102.574 390.242 101.616C391.511 100.657 392.771 99.8143 394.023 99.0892C395.708 98.1411 397.228 97.1814 398.582 96.2094C399.937 95.239 400.792 93.8308 401.147 91.9858C401.342 90.9725 401.208 90.0764 400.746 89.3026C400.283 88.5279 399.669 87.8862 398.906 87.3766C398.141 86.8679 397.354 86.5565 396.541 86.4434C394.969 86.2245 393.597 86.3525 392.421 86.8274C391.245 87.3031 390.225 87.977 389.362 88.8508C388.498 89.7246 387.722 90.6578 387.029 91.6505L378.405 86.6127C378.89 85.8281 379.662 84.847 380.723 83.6693C381.785 82.4924 383.183 81.3618 384.922 80.2774C386.659 79.1947 388.736 78.3713 391.153 77.8089C393.568 77.2464 396.348 77.1837 399.49 77.6222C402.577 78.0525 405.266 78.8899 407.557 80.1329C409.848 81.3758 411.545 83.0333 412.648 85.1046C413.751 87.1759 414.01 89.7337 413.424 92.7762C412.936 95.3125 412.135 97.3086 411.021 98.7621C409.906 100.217 408.649 101.403 407.249 102.32C405.848 103.238 404.45 104.144 403.055 105.037C401.982 105.693 400.936 106.435 399.915 107.263C398.892 108.091 398.019 109.093 397.293 110.271C396.565 111.448 396.034 112.913 395.696 114.664L395.417 116.116L384.044 114.529ZM386.922 129.916C384.972 129.644 383.461 128.971 382.388 127.899C381.314 126.825 380.921 125.553 381.206 124.076C381.481 122.647 382.347 121.536 383.807 120.746C385.265 119.955 386.943 119.692 388.839 119.957C390.735 120.221 392.199 120.923 393.231 122.061C394.263 123.2 394.641 124.484 394.367 125.913C394.083 127.389 393.258 128.492 391.894 129.225C390.528 129.958 388.872 130.188 386.922 129.916Z" fill="white"/>
<g opacity="0.4">
<path d="M129.761 62.1718L128.733 59.1169C128.086 57.1959 127.827 55.5235 127.959 54.0972C128.09 52.6726 128.439 51.3916 129.009 50.2544C129.579 49.1172 130.192 48.0741 130.848 47.1235C131.744 45.8665 132.506 44.6508 133.137 43.4773C133.768 42.3045 133.825 40.9501 133.307 39.4123C133.022 38.5674 132.534 37.9167 131.844 37.4616C131.153 37.0065 130.403 36.701 129.594 36.5449C128.784 36.3896 128.041 36.3937 127.364 36.5589C126.054 36.8785 125.048 37.4046 124.342 38.138C123.637 38.8714 123.137 39.7105 122.845 40.6553C122.552 41.6001 122.352 42.5639 122.244 43.5466L113.41 42.3343C113.448 41.5769 113.624 40.5776 113.939 39.3363C114.254 38.0959 114.85 36.786 115.73 35.406C116.608 34.0276 117.861 32.745 119.489 31.5574C121.116 30.3706 123.238 29.4572 125.856 28.818C128.429 28.1903 130.868 28.0004 133.175 28.2481C135.481 28.4967 137.505 29.2499 139.248 30.5085C140.99 31.7672 142.289 33.6642 143.143 36.2005C143.855 38.3139 144.091 40.1069 143.855 41.5786C143.618 43.0503 143.154 44.3593 142.465 45.504C141.777 46.6495 141.084 47.7859 140.389 48.9107C139.841 49.7523 139.351 50.6517 138.917 51.6097C138.481 52.5685 138.237 53.6157 138.18 54.7521C138.123 55.8885 138.342 57.1876 138.832 58.647L139.24 59.8569L129.761 62.1718ZM138.596 73.1766C136.971 73.573 135.513 73.5234 134.222 73.0279C132.931 72.5324 132.08 71.6694 131.665 70.4396C131.265 69.2487 131.458 68.1197 132.247 67.0544C133.036 65.989 134.22 65.263 135.8 64.8774C137.379 64.4917 138.813 64.5784 140.1 65.1375C141.388 65.6966 142.232 66.5721 142.633 67.763C143.047 68.9935 142.884 70.1035 142.143 71.0954C141.403 72.0864 140.221 72.7802 138.596 73.1766Z" fill="#55A3F3"/>
<path d="M327.588 63.8053L328.859 60.8173C329.658 58.9384 330.601 57.4543 331.69 56.365C332.776 55.2765 333.943 54.4135 335.188 53.7767C336.433 53.14 337.647 52.6007 338.835 52.1588C340.425 51.5873 341.881 50.9836 343.2 50.3485C344.518 49.7142 345.498 48.6447 346.137 47.1408C346.489 46.3149 346.542 45.5436 346.296 44.83C346.05 44.1164 345.653 43.4946 345.105 42.9643C344.556 42.4341 343.952 42.0666 343.289 41.8626C342.008 41.4679 340.83 41.3919 339.754 41.633C338.677 41.875 337.695 42.3053 336.808 42.9247C335.919 43.5441 335.094 44.2246 334.329 44.9663L328.009 39.5741C328.562 38.9795 329.394 38.2577 330.503 37.4095C331.613 36.5622 332.998 35.7982 334.661 35.1202C336.322 34.443 338.221 34.0284 340.358 33.8789C342.493 33.7302 344.841 34.0499 347.402 34.8394C349.919 35.6149 352.025 36.6794 353.723 38.0314C355.419 39.3834 356.541 41.0045 357.085 42.8942C357.629 44.7838 357.374 46.969 356.32 49.4491C355.44 51.5163 354.397 53.0871 353.192 54.1607C351.986 55.2344 350.708 56.0636 349.363 56.6466C348.016 57.2305 346.672 57.8045 345.334 58.3694C344.311 58.7774 343.294 59.2613 342.282 59.8205C341.269 60.3796 340.35 61.1055 339.52 61.9983C338.691 62.8902 337.973 64.0514 337.366 65.4794L336.862 66.6628L327.588 63.8053ZM327.163 77.13C325.574 76.6402 324.427 75.8722 323.724 74.8266C323.02 73.7802 322.924 72.657 323.436 71.4537C323.932 70.2893 324.866 69.4716 326.24 69.0017C327.612 68.5318 329.071 68.5359 330.617 69.0125C332.161 69.489 333.263 70.2752 333.921 71.3703C334.579 72.4663 334.659 73.5969 334.163 74.7614C333.651 75.9647 332.754 76.7815 331.471 77.2159C330.188 77.6486 328.752 77.6197 327.163 77.13Z" fill="#55A3F3"/>
<path d="M417.699 208.248L418.651 206.27C419.25 205.025 419.932 204.05 420.698 203.343C421.464 202.637 422.276 202.085 423.134 201.686C423.992 201.287 424.825 200.953 425.638 200.684C426.726 200.337 427.724 199.966 428.632 199.57C429.539 199.174 430.231 198.479 430.71 197.483C430.973 196.935 431.033 196.419 430.892 195.934C430.749 195.448 430.503 195.021 430.152 194.651C429.8 194.282 429.405 194.02 428.966 193.867C428.118 193.572 427.329 193.492 426.597 193.63C425.866 193.767 425.192 194.034 424.575 194.429C423.958 194.825 423.38 195.262 422.842 195.743L418.769 191.969C419.16 191.583 419.742 191.117 420.516 190.573C421.289 190.029 422.245 189.549 423.385 189.132C424.524 188.716 425.813 188.482 427.255 188.431C428.695 188.382 430.264 188.652 431.96 189.242C433.627 189.823 435.007 190.588 436.105 191.537C437.201 192.486 437.903 193.601 438.207 194.885C438.512 196.168 438.269 197.631 437.48 199.274C436.821 200.643 436.069 201.674 435.224 202.367C434.378 203.061 433.494 203.588 432.569 203.949C431.645 204.31 430.722 204.664 429.804 205.013C429.103 205.263 428.405 205.564 427.706 205.916C427.008 206.268 426.365 206.734 425.779 207.315C425.194 207.895 424.673 208.659 424.218 209.604L423.84 210.388L417.699 208.248ZM416.982 217.196C415.929 216.829 415.183 216.286 414.745 215.566C414.305 214.846 414.277 214.089 414.66 213.292C415.031 212.521 415.686 211.993 416.625 211.71C417.563 211.426 418.543 211.463 419.567 211.819C420.59 212.176 421.305 212.73 421.712 213.482C422.118 214.234 422.136 214.996 421.765 215.767C421.382 216.564 420.752 217.093 419.875 217.354C418.998 217.615 418.034 217.563 416.982 217.196Z" fill="#55A3F3"/>
<path d="M29.164 156.574L27.8873 155.174C27.0851 154.292 26.5438 153.471 26.2644 152.71C25.985 151.949 25.855 151.223 25.8734 150.534C25.8919 149.844 25.9549 149.196 26.0645 148.587C26.2227 147.778 26.3216 147.014 26.3624 146.295C26.4041 145.576 26.1033 144.864 25.4611 144.159C25.108 143.772 24.6967 143.52 24.2281 143.406C23.7596 143.293 23.2968 143.267 22.8399 143.329C22.382 143.392 21.9989 143.525 21.6884 143.729C21.0879 144.126 20.6941 144.576 20.5078 145.081C20.3206 145.585 20.2663 146.108 20.3448 146.649C20.4234 147.19 20.5544 147.724 20.7368 148.253L15.8659 149.183C15.701 148.785 15.5497 148.235 15.41 147.538C15.2712 146.84 15.2615 146.056 15.3809 145.186C15.5002 144.317 15.8368 143.432 16.3907 142.529C16.9447 141.628 17.8216 140.78 19.0226 139.987C20.2022 139.209 21.4187 138.68 22.674 138.402C23.9284 138.123 25.1604 138.156 26.3701 138.501C27.5789 138.845 28.7139 139.599 29.7732 140.762C30.656 141.732 31.2157 142.618 31.4505 143.422C31.6862 144.227 31.7648 144.986 31.6862 145.701C31.6077 146.416 31.5262 147.126 31.4398 147.832C31.3613 148.364 31.3254 148.916 31.3341 149.489C31.3419 150.062 31.4699 150.648 31.7173 151.247C31.9647 151.845 32.3934 152.48 33.0036 153.149L33.5091 153.704L29.164 156.574ZM36.4184 160.716C35.6733 161.208 34.906 161.439 34.1173 161.411C33.3276 161.382 32.6767 161.085 32.1626 160.521C31.6649 159.975 31.4903 159.357 31.6397 158.665C31.7881 157.974 32.2256 157.389 32.9503 156.911C33.6749 156.433 34.4384 156.225 35.2407 156.288C36.0439 156.35 36.6939 156.655 37.1915 157.201C37.7057 157.765 37.891 158.369 37.7484 159.013C37.6067 159.656 37.1634 160.225 36.4184 160.716Z" fill="#55A3F3"/>
<path d="M323.421 141.528L324.379 139.807C324.981 138.725 325.643 137.885 326.366 137.288C327.087 136.691 327.84 136.233 328.625 135.913C329.41 135.594 330.17 135.331 330.909 135.126C331.896 134.862 332.804 134.572 333.634 134.258C334.463 133.943 335.118 133.352 335.6 132.487C335.865 132.011 335.948 131.554 335.849 131.116C335.75 130.678 335.555 130.288 335.263 129.945C334.971 129.602 334.636 129.354 334.254 129.199C333.516 128.902 332.819 128.799 332.16 128.891C331.501 128.984 330.886 129.192 330.316 129.519C329.745 129.845 329.206 130.211 328.701 130.616L325.292 127.093C325.661 126.765 326.206 126.375 326.924 125.923C327.643 125.471 328.52 125.083 329.557 124.758C330.593 124.435 331.754 124.28 333.038 124.294C334.321 124.309 335.701 124.614 337.176 125.208C338.626 125.793 339.81 126.53 340.733 127.419C341.654 128.308 342.215 129.33 342.413 130.483C342.612 131.637 342.313 132.928 341.518 134.357C340.855 135.548 340.128 136.434 339.337 137.015C338.545 137.597 337.728 138.03 336.886 138.313C336.043 138.596 335.204 138.873 334.368 139.145C333.731 139.339 333.091 139.578 332.45 139.863C331.809 140.148 331.211 140.536 330.657 141.028C330.104 141.52 329.597 142.178 329.139 143L328.76 143.682L323.421 141.528ZM322.277 149.455C321.362 149.086 320.728 148.572 320.379 147.914C320.029 147.256 320.047 146.581 320.434 145.888C320.807 145.218 321.419 144.775 322.27 144.562C323.12 144.348 323.99 144.421 324.88 144.78C325.77 145.139 326.374 145.661 326.694 146.347C327.013 147.032 326.985 147.711 326.611 148.382C326.225 149.075 325.635 149.518 324.841 149.715C324.046 149.911 323.192 149.825 322.277 149.455Z" fill="#55A3F3"/>
<path d="M399.36 176.949L400.318 175.228C400.921 174.146 401.582 173.306 402.304 172.709C403.025 172.113 403.779 171.655 404.563 171.335C405.348 171.015 406.109 170.753 406.847 170.547C407.835 170.284 408.743 169.994 409.572 169.679C410.401 169.364 411.056 168.774 411.538 167.908C411.803 167.433 411.887 166.975 411.788 166.537C411.689 166.1 411.494 165.71 411.202 165.366C410.91 165.024 410.574 164.775 410.192 164.621C409.455 164.323 408.757 164.22 408.098 164.313C407.44 164.405 406.825 164.614 406.254 164.94C405.683 165.266 405.145 165.632 404.639 166.038L401.23 162.515C401.6 162.187 402.144 161.797 402.863 161.344C403.582 160.893 404.459 160.504 405.496 160.18C406.532 159.856 407.692 159.702 408.976 159.716C410.26 159.731 411.639 160.035 413.115 160.63C414.564 161.215 415.749 161.951 416.671 162.841C417.593 163.729 418.153 164.751 418.351 165.905C418.55 167.059 418.251 168.349 417.456 169.778C416.793 170.969 416.066 171.855 415.275 172.437C414.484 173.019 413.667 173.452 412.825 173.734C411.982 174.017 411.143 174.295 410.306 174.567C409.669 174.761 409.03 174.999 408.388 175.284C407.747 175.569 407.15 175.957 406.596 176.45C406.042 176.942 405.535 177.599 405.078 178.422L404.698 179.103L399.36 176.949ZM398.215 184.877C397.3 184.508 396.667 183.994 396.318 183.336C395.967 182.678 395.986 182.003 396.371 181.31C396.744 180.639 397.357 180.197 398.207 179.984C399.057 179.77 399.927 179.842 400.818 180.202C401.707 180.561 402.312 181.083 402.631 181.768C402.95 182.454 402.922 183.132 402.548 183.803C402.162 184.496 401.573 184.94 400.778 185.137C399.985 185.333 399.13 185.247 398.215 184.877Z" fill="#55A3F3"/>
<path d="M139.128 152.857L138.035 150.933C137.347 149.723 136.95 148.639 136.845 147.68C136.739 146.723 136.798 145.839 137.023 145.03C137.247 144.221 137.513 143.469 137.821 142.775C138.245 141.854 138.587 140.973 138.846 140.133C139.106 139.294 138.961 138.391 138.411 137.422C138.108 136.89 137.697 136.506 137.178 136.272C136.658 136.038 136.12 135.908 135.562 135.884C135.005 135.86 134.513 135.936 134.086 136.111C133.261 136.452 132.665 136.899 132.296 137.453C131.927 138.008 131.709 138.614 131.643 139.269C131.576 139.924 131.573 140.582 131.634 141.244L125.615 141.304C125.538 140.797 125.52 140.118 125.562 139.265C125.603 138.412 125.822 137.485 126.218 136.484C126.615 135.485 127.273 134.511 128.192 133.564C129.11 132.619 130.394 131.805 132.044 131.126C133.665 130.459 135.256 130.095 136.819 130.034C138.381 129.973 139.825 130.275 141.149 130.939C142.474 131.603 143.591 132.734 144.499 134.332C145.256 135.664 145.655 136.828 145.696 137.827C145.738 138.826 145.607 139.739 145.304 140.565C145.001 141.391 144.696 142.212 144.387 143.027C144.138 143.638 143.934 144.282 143.775 144.959C143.616 145.637 143.595 146.356 143.71 147.115C143.826 147.874 144.145 148.713 144.668 149.633L145.101 150.395L139.128 152.857ZM146.47 159.289C145.447 159.711 144.473 159.821 143.551 159.618C142.629 159.415 141.948 158.926 141.507 158.152C141.081 157.402 141.057 156.634 141.436 155.851C141.816 155.067 142.502 154.471 143.498 154.06C144.493 153.651 145.455 153.567 146.384 153.812C147.312 154.058 147.99 154.556 148.417 155.306C148.858 156.08 148.898 156.833 148.541 157.562C148.183 158.291 147.494 158.867 146.47 159.289Z" fill="#55A3F3"/>
<path d="M14.2275 193.224L13.1332 191.3C12.4454 190.09 12.0487 189.005 11.9429 188.047C11.8372 187.09 11.8963 186.207 12.1214 185.397C12.3455 184.588 12.6113 183.836 12.9188 183.142C13.3428 182.221 13.6842 181.341 13.9442 180.501C14.2042 179.662 14.0587 178.758 13.5087 177.789C13.206 177.257 12.7947 176.873 12.2757 176.639C11.7557 176.404 11.2183 176.275 10.6604 176.251C10.1026 176.227 9.6108 176.302 9.18396 176.478C8.35841 176.818 7.76277 177.265 7.39413 177.82C7.02549 178.375 6.80722 178.98 6.74126 179.635C6.67432 180.29 6.67141 180.948 6.73253 181.611L0.713075 181.67C0.636437 181.164 0.618005 180.484 0.659719 179.631C0.701433 178.778 0.919705 177.851 1.31647 176.85C1.71324 175.851 2.37097 174.877 3.28965 173.931C4.20833 172.985 5.49177 172.172 7.14191 171.493C8.76294 170.825 10.3539 170.461 11.9167 170.4C13.4786 170.339 14.9231 170.641 16.2472 171.305C17.5724 171.969 18.689 173.101 19.597 174.698C20.3537 176.03 20.7533 177.195 20.7941 178.193C20.8358 179.192 20.7048 180.105 20.4031 180.932C20.1005 181.758 19.7949 182.579 19.4864 183.394C19.2371 184.005 19.0334 184.649 18.8743 185.327C18.7152 186.005 18.6938 186.724 18.8093 187.483C18.9247 188.242 19.2439 189.081 19.7667 190.001L20.2004 190.764L14.2275 193.224ZM21.5692 199.657C20.5457 200.079 19.5718 200.189 18.6502 199.986C17.7276 199.783 17.0466 199.294 16.6062 198.52C16.1803 197.77 16.156 197.002 16.5354 196.219C16.9147 195.435 17.6015 194.839 18.5968 194.428C19.5921 194.019 20.5545 193.935 21.4828 194.18C22.4112 194.426 23.0893 194.924 23.5162 195.674C23.9566 196.448 23.9973 197.201 23.6403 197.93C23.2824 198.659 22.5926 199.235 21.5692 199.657Z" fill="#55A3F3"/>
</g>
<path d="M302.844 213.243C302.844 213.243 303.404 206.364 303.827 202.935C304.412 198.185 305.191 193.41 307.101 188.92C309.01 184.429 312.139 180.202 316.687 177.406C321.438 181.664 326.664 186.007 331.973 189.756C335.587 192.308 340.6 193.626 344.105 196.285C348.744 199.806 353.245 203.588 356.282 208.205C360.624 214.806 361.643 222.567 362.577 230.091C363.834 240.225 365.11 250.103 366.367 260.237C355.102 265.609 342.501 269.382 329.828 271.487C331.62 263.474 330.217 254.94 327.026 247.25C324.067 247.924 321.082 248.602 318.023 248.735C314.964 248.869 311.786 248.42 309.222 246.995C305.884 245.139 304.091 241.967 303.167 238.59C304.642 238.49 305.786 237.813 305.786 236.984C305.786 236.086 304.447 235.358 302.794 235.358C302.704 235.358 302.621 235.368 302.534 235.372C302.511 235.2 302.488 235.028 302.469 234.857C302.178 232.219 301.755 231.17 302.004 228.529C301.586 228.486 294.875 225.779 294.875 225.779L302.844 213.243Z" fill="#FF8775"/>
<path d="M308.136 213.471C308.136 215.014 309.034 216.265 310.143 216.265C311.252 216.265 312.15 215.014 312.15 213.471C312.15 211.927 311.252 210.676 310.143 210.676C309.035 210.676 308.136 211.927 308.136 213.471Z" fill="#0A2A6B"/>
<path d="M318.729 210.572C318.073 209.486 317.376 208.429 316.473 207.554C316.032 207.11 315.553 206.717 315.026 206.383C314.516 206.034 313.956 205.74 313.37 205.505C312.785 205.268 312.161 205.107 311.533 205.004C310.912 204.884 310.3 204.787 309.686 204.652C309.069 204.519 308.438 204.416 307.773 204.309L305.636 204.033L305.559 203.834C306.742 202.903 308.395 202.536 309.991 202.573C311.619 202.596 313.098 203.304 314.372 204.062C315.675 204.802 316.756 205.834 317.487 206.962C318.201 208.102 318.667 209.294 318.96 210.502L318.729 210.572Z" fill="#0A2A6B"/>
<path d="M327.024 247.249L333.654 244.705L328.12 250.132L327.024 247.249Z" fill="#0A2A6B"/>
<path d="M307.253 385.789L299.098 428H413.485L408.705 410.258C402.257 386.327 395.139 361.686 397.689 337.23C399.32 321.596 394.012 303.777 387.85 293.041C375.008 270.667 366.366 260.236 366.366 260.236C366.366 260.236 339.807 259.404 321.589 271.486C303.372 283.568 296.433 299.585 296.433 299.585L307.253 385.789Z" fill="#55A3F3"/>
<path d="M265.954 274.757L290.231 316.112L296.433 299.585C296.433 299.585 305.163 299.586 314.122 307.976C323.082 316.366 326.964 322.468 326.964 322.468L293.217 360.86C293.217 360.86 274.7 336.706 269.623 322.977C264.546 309.247 252.189 281.64 252.189 281.64L265.954 274.757Z" fill="#FF8775"/>
<path d="M312.955 338.405C315.514 335.393 318.145 332.428 320.786 329.471C323.426 326.512 326.122 323.592 328.788 320.651C331.506 317.745 334.196 314.82 336.94 311.931C339.684 309.043 342.439 306.16 345.265 303.327C342.707 306.339 340.076 309.304 337.436 312.262C334.794 315.219 332.099 318.14 329.432 321.081C326.713 323.986 324.025 326.912 321.28 329.8C318.536 332.69 315.781 335.571 312.955 338.405Z" fill="#0A2A6B"/>
<path d="M291.684 312.238C291.216 313.902 290.663 315.542 290.097 317.18C289.54 318.819 288.921 320.443 288.302 322.065C287.665 323.683 287.026 325.3 286.326 326.9C285.634 328.502 284.931 330.102 284.14 331.676C284.607 330.01 285.161 328.37 285.727 326.732C286.284 325.093 286.902 323.471 287.522 321.849C288.161 320.232 288.799 318.616 289.499 317.015C290.191 315.413 290.894 313.813 291.684 312.238Z" fill="#0A2A6B"/>
<path d="M401.996 355.467C420.05 343.793 415.962 335.593 415.962 335.593C415.962 335.593 411.276 356.249 383.063 356.249C354.85 356.249 340.937 242.21 341.22 235.772C341.503 229.332 339.544 222.705 334.92 217.603C330.415 212.631 323.713 209.373 319.127 204.454C313.763 198.701 311.784 191.244 309.955 184.065C307.529 187.031 306 190.605 305.377 194.18C300.61 190.906 297.698 185.942 298.312 180.754C298.925 175.566 303.505 170.726 309.502 169.667C313.756 168.915 318.116 169.992 322.376 170.721C328.078 171.696 333.926 172.053 339.734 171.779C345.57 171.504 351.374 170.595 357.216 170.76C372.018 171.178 381.216 179.602 385.375 191.704C396.862 225.131 433.713 307.558 427.567 331.677C423.973 345.787 411.275 353.041 401.996 355.467Z" fill="#0A2A6B"/>
<path d="M345.212 216.202C345.546 219.165 344.318 222.231 341.925 224.401C341.176 225.081 340.295 225.687 339.253 225.97C336.902 226.609 334.265 225.387 332.983 223.592C331.7 221.797 331.519 219.584 331.691 217.489C331.912 214.78 332.961 211.768 335.809 210.545C340.399 208.573 344.798 212.532 345.212 216.202Z" fill="#FF8775"/>
<path d="M335.733 224.065C336.702 223.579 337.506 222.858 338.025 222.008C338.128 221.837 338.223 221.652 338.207 221.459C338.175 221.093 337.764 220.847 337.395 220.657C336.648 220.271 335.901 219.885 335.154 219.5C335.005 219.423 334.849 219.34 334.764 219.211C334.67 219.068 334.678 218.895 334.687 218.732C334.818 216.653 335.031 214.398 336.667 212.851C337.11 212.433 337.659 212.079 338.298 211.936C339.246 211.725 340.272 212.011 341.06 212.509C341.848 213.006 342.437 213.692 342.997 214.376C342.997 214.376 344.681 218.421 342.007 221.617C339.333 224.813 335.733 224.065 335.733 224.065Z" fill="#FF8775"/>
<path d="M342.996 214.376C342.333 213.727 341.683 213.048 340.847 212.628C340.049 212.194 339.044 212 338.241 212.283C337.441 212.569 336.788 213.203 336.346 213.901C335.894 214.6 335.621 215.391 335.465 216.211C335.287 217.028 335.22 217.873 335.15 218.727C335.128 218.96 335.139 219.025 335.174 219.051C335.23 219.113 335.506 219.248 335.706 219.36C336.134 219.589 336.556 219.826 336.975 220.067C337.379 220.323 337.84 220.486 338.255 220.912C338.459 221.118 338.556 221.475 338.447 221.737C338.35 221.998 338.205 222.175 338.062 222.364C337.459 223.096 336.661 223.706 335.733 224.064C336.544 223.546 337.223 222.904 337.652 222.156C337.76 221.974 337.882 221.778 337.915 221.623C337.948 221.467 337.901 221.361 337.775 221.24C337.523 221.008 337.018 220.827 336.585 220.611C336.14 220.406 335.698 220.197 335.262 219.98C335.039 219.857 334.846 219.812 334.535 219.575C334.383 219.456 334.267 219.243 334.245 219.085C334.214 218.922 334.225 218.791 334.227 218.683C334.27 217.82 334.33 216.945 334.505 216.066C334.691 215.193 334.993 214.307 335.548 213.509C336.109 212.737 336.869 211.98 337.998 211.681C339.142 211.392 340.295 211.749 341.121 212.297C341.943 212.882 342.509 213.622 342.996 214.376Z" fill="#0A2A6B"/>
<path d="M265.954 274.757L255.644 229.715C255.644 229.715 253.773 229.478 253.073 231.622C252.374 233.766 255.311 249.485 255.311 249.485L252.957 249.421C251.735 249.387 250.592 249.927 249.977 250.826C249.383 251.696 248.289 252.232 247.105 252.232H245.47C244.142 252.232 242.941 252.905 242.418 253.944L242.361 254.057C241.893 254.986 240.876 255.632 239.696 255.75L239.215 255.798C237.8 255.94 236.648 256.833 236.352 258.02L236.153 258.822C235.97 259.554 236.136 260.317 236.612 260.945L252.331 281.639L265.954 274.757Z" fill="#FF8775"/>
<path d="M338.451 249.529C330.338 249.529 323.738 243.91 323.738 237.004C323.738 230.097 330.338 224.478 338.451 224.478V225.304C330.873 225.304 324.708 230.552 324.708 237.004C324.708 243.455 330.873 248.703 338.451 248.703C346.029 248.703 352.058 243.454 352.194 237.004C352.326 230.76 345.878 225.411 340.571 225.411L341.614 224.673C348.484 225.726 353.164 230.966 353.164 237.004C353.164 243.91 346.563 249.529 338.451 249.529Z" fill="white"/>
<g opacity="0.29">
<path d="M415.962 335.593C416.517 334.159 416.581 332.634 416.621 331.14C416.637 329.637 416.517 328.137 416.341 326.644L416.029 324.407L415.596 322.185C415.34 320.699 414.913 319.238 414.561 317.768C413.037 311.901 410.948 306.152 408.689 300.461C407.48 297.637 406.362 294.787 405.058 291.993L403.159 287.785C402.52 286.385 401.819 285.005 401.153 283.613C398.458 278.067 395.72 272.482 393.403 266.789C392.78 265.378 392.285 263.93 391.726 262.5C391.188 261.065 390.624 259.636 390.107 258.196C389.131 255.3 388.051 252.429 387.161 249.514L385.776 245.152L384.479 240.772C383.591 237.855 382.834 234.914 382.05 231.978C380.55 226.092 379.127 220.193 377.893 214.265C376.685 208.333 375.565 202.387 374.665 196.418C375.723 202.368 376.997 208.288 378.359 214.191C379.688 220.099 381.191 225.978 382.778 231.836C386.031 243.536 389.629 255.183 394.318 266.519C396.605 272.21 399.286 277.746 401.968 283.331C402.63 284.727 403.325 286.112 403.958 287.519L405.842 291.744C407.146 294.545 408.227 297.418 409.394 300.261C411.572 305.993 413.591 311.78 415.023 317.686C415.338 319.17 415.727 320.641 415.947 322.139L416.322 324.377L416.577 326.627C416.714 328.129 416.795 329.637 416.739 331.144C416.66 332.64 416.555 334.169 415.962 335.593Z" fill="white"/>
<path d="M363.243 201.051C364.48 207.821 365.946 214.558 367.534 221.271C369.1 227.988 370.805 234.682 372.702 241.334C374.61 247.984 376.646 254.606 378.96 261.161C381.259 267.719 383.78 274.221 386.296 280.73C388.78 287.246 391.253 293.775 393.335 300.408C395.406 307.039 397.041 313.795 397.783 320.641C398.196 324.059 398.308 327.5 398.282 330.934C398.27 332.651 398.094 334.368 398.001 336.084L397.625 338.644L397.432 339.924L397.124 341.188C396.343 344.549 395.103 347.911 392.824 350.775L391.941 351.825C391.648 352.176 391.269 352.47 390.937 352.793L390.424 353.268C390.239 353.414 390.04 353.549 389.849 353.689C389.453 353.956 389.102 354.273 388.662 354.489C387.011 355.463 385.08 356.169 383.063 356.25C385.077 356.136 386.98 355.399 388.594 354.406C389.025 354.186 389.366 353.865 389.751 353.594C389.937 353.452 390.13 353.316 390.31 353.169L390.807 352.69C391.128 352.363 391.495 352.069 391.777 351.716L392.626 350.663C394.812 347.797 395.963 344.453 396.658 341.11L396.943 339.856L397.118 338.586L397.457 336.045C397.527 334.339 397.681 332.636 397.67 330.929C397.651 327.514 397.495 324.097 397.042 320.704C396.188 313.914 394.591 307.199 392.484 300.603C390.382 294.003 387.883 287.495 385.375 280.986C382.888 274.471 380.391 267.953 378.116 261.375C375.839 254.797 373.776 248.163 371.979 241.48C368.356 228.12 365.434 214.627 363.243 201.051Z" fill="white"/>
<path d="M357.869 221.531L363.974 253.275C366.062 263.847 368.129 274.424 370.542 284.94C371.117 287.574 371.751 290.197 372.393 292.817L374.413 300.673L374.917 302.64L375.354 304.62L376.213 308.582L376.919 312.568C377.166 313.895 377.273 315.24 377.456 316.575C377.653 317.908 377.713 319.254 377.81 320.597C377.938 321.939 377.914 323.286 377.926 324.632L377.933 325.641L377.87 326.649L377.741 328.666C377.68 329.338 377.561 330.005 377.473 330.674L377.331 331.676C377.269 332.009 377.185 332.339 377.11 332.67C376.561 335.324 375.593 337.913 374.29 340.361C373.004 342.818 371.401 345.13 369.966 347.515C371.331 345.099 372.866 342.751 374.072 340.28C375.298 337.819 376.177 335.238 376.643 332.6L376.841 331.615L376.966 330.62C377.042 329.957 377.149 329.296 377.199 328.631L377.294 326.631L377.34 325.632L377.316 324.631C377.282 323.296 377.284 321.962 377.135 320.63C377.017 319.298 376.935 317.964 376.717 316.64C376.392 313.981 375.874 311.343 375.39 308.701L374.512 304.76L374.066 302.79L373.553 300.831L371.491 292.983C370.833 290.358 370.18 287.732 369.594 285.096C367.256 274.552 365.175 263.974 363.243 253.375L360.442 237.466L357.869 221.531Z" fill="white"/>
</g>
<path d="M178.915 322.081C177.853 326.858 174.703 331.278 170.216 334.287C165.729 337.296 159.944 338.866 154.239 338.626C151.402 338.506 148.606 337.956 145.921 337.168C141.305 335.815 138.039 334.375 135.162 331.018C130.782 338.269 121.786 343.341 112.234 343.944C102.683 344.547 93.1779 341.578 87.5891 334.956C76.4738 339.179 62.7644 337.977 52.8946 331.913C43.0239 325.848 36.8385 315.046 38.0443 304.734C28.5665 297.91 24.6134 286.029 28.4802 275.988C32.6138 265.251 47.8918 259.364 52.4988 248.769C57.8004 236.578 61.2898 226.844 70.5242 193.226C79.7595 159.608 112.818 161.725 112.818 161.725C112.818 161.725 144.607 156.37 157.554 194.043C170.502 231.717 176.519 260.735 186.943 272.657C190.416 276.63 192.512 281.154 195.129 285.578C199.119 292.319 200.086 300.433 197.129 307.548C194.17 314.664 187.491 320.16 178.915 322.081Z" fill="#0A2A6B"/>
<path d="M141.544 242.925C133.482 249.066 120.679 250.156 111.349 245.498C108.581 244.116 106.14 242.306 103.852 240.392C99.2895 236.576 95.2354 232.267 92.3571 227.405C90.3073 223.943 88.8745 220.238 87.7172 216.488C85.159 208.196 83.9377 199.379 86.4211 191.07C88.9046 182.762 95.5944 175.037 105.077 172.152C115.897 168.861 128.158 169.99 137.206 176.018C146.253 182.047 151.56 191.593 152.783 201.319C153.4 206.224 153.055 211.18 152.52 216.093C151.975 221.087 151.226 226.099 149.422 230.872C147.621 235.645 145.934 239.582 141.544 242.925Z" fill="#FF8775"/>
<path d="M88.3264 221.175C90.3064 219.523 91.4336 217.268 92.2107 215.002C94.0664 209.589 95.8999 197.624 95.8999 197.624C95.8999 197.624 115.341 195.045 122.571 180.618C130.361 189.708 142.101 195.623 155.229 196.925C153.353 190.025 150.181 183.305 144.649 178.015C139.118 172.724 131.672 168.804 123.509 167.438C110.736 165.301 96.9505 169.809 88.4447 178.197C79.938 186.586 76.6765 198.427 79.0018 209.331C79.8225 213.18 81.5231 217.198 85.3074 219.417" fill="#0A2A6B"/>
<path d="M117.622 206.722C117.622 208.141 116.601 209.293 115.34 209.293C114.08 209.293 113.057 208.141 113.057 206.722C113.057 205.302 114.079 204.151 115.34 204.151C116.601 204.151 117.622 205.302 117.622 206.722Z" fill="#0A2A6B"/>
<path d="M141.632 206.722C141.632 208.141 140.611 209.293 139.35 209.293C138.09 209.293 137.067 208.141 137.067 206.722C137.067 205.302 138.089 204.151 139.35 204.151C140.611 204.151 141.632 205.302 141.632 206.722Z" fill="#0A2A6B"/>
<path d="M76.8851 214.561C77.4594 217.986 79.8322 221.164 83.2324 223.061C84.2966 223.654 85.4879 224.134 86.7568 224.212C89.6186 224.387 92.2058 222.392 93.0789 220.065C93.952 217.739 93.4466 215.197 92.5793 212.868C91.4588 209.857 89.3072 206.698 85.6955 205.979C79.873 204.819 76.174 210.317 76.8851 214.561Z" fill="#FF8775"/>
<path d="M90.1219 221.239C88.8705 220.915 87.7306 220.287 86.8721 219.447C86.6994 219.278 86.5325 219.091 86.4898 218.87C86.4084 218.448 86.7935 218.076 87.1495 217.774C87.8693 217.164 88.5901 216.555 89.3099 215.945C89.4535 215.823 89.6029 215.694 89.6582 215.527C89.7183 215.345 89.6543 215.151 89.5903 214.968C88.7754 212.65 87.8102 210.151 85.4635 208.784C84.83 208.415 84.0947 208.142 83.3273 208.129C82.1884 208.111 81.1204 208.674 80.3899 209.419C79.6594 210.164 79.2141 211.077 78.8009 211.981C78.8009 211.981 78.1975 216.944 82.2457 219.934C86.2939 222.924 90.1219 221.239 90.1219 221.239Z" fill="#FF8775"/>
<path d="M78.802 211.981C79.1105 211.015 79.5121 210.048 80.2533 209.197C81.0012 208.38 82.1944 207.695 83.5855 207.768C84.9573 207.852 86.0593 208.526 86.9411 209.27C87.8239 210.042 88.4496 210.973 88.9405 211.916C89.4197 212.869 89.7689 213.843 90.0949 214.809C90.1327 214.928 90.1871 215.075 90.2045 215.266C90.2297 215.45 90.1677 215.717 90.0338 215.887C89.7573 216.228 89.5536 216.323 89.3421 216.514L88.0538 217.539C87.6347 217.884 87.1293 218.214 86.9188 218.528C86.815 218.69 86.7927 218.817 86.8771 218.985C86.9615 219.153 87.1613 219.348 87.3408 219.529C88.0654 220.275 89.0394 220.842 90.1221 221.238C88.9579 221.049 87.8608 220.546 86.944 219.86C86.7219 219.68 86.4987 219.516 86.3018 219.242C86.0923 218.971 86.0835 218.542 86.2475 218.258C86.3959 217.964 86.62 217.75 86.8276 217.556L87.431 217.006L88.6427 215.915C88.8318 215.741 89.1015 215.525 89.1442 215.441C89.1762 215.404 89.1685 215.328 89.0685 215.07C88.7154 214.122 88.3672 213.181 87.9034 212.3C87.464 211.41 86.9013 210.579 86.166 209.895C85.4443 209.211 84.5013 208.641 83.505 208.513C82.5117 208.392 81.4416 208.832 80.6704 209.505C79.8594 210.176 79.3433 211.093 78.802 211.981Z" fill="#0A2A6B"/>
<path d="M127.486 203.306C127.678 205.515 127.85 207.749 128.488 209.829C128.652 210.341 128.845 210.849 129.124 211.272C129.38 211.664 129.848 212.044 130.281 212.392C131.196 213.09 132.311 213.693 133.285 214.568C135.331 216.334 135.844 219.16 134.651 221.368C133.45 223.588 130.594 224.946 127.964 224.682C130.554 224.361 132.729 222.86 133.54 220.974C134.36 219.087 133.839 216.838 132.243 215.398C131.433 214.652 130.369 214.007 129.402 213.173C128.915 212.746 128.474 212.308 128.125 211.713C127.814 211.147 127.654 210.578 127.522 210.014C127.087 207.752 127.198 205.517 127.486 203.306Z" fill="#0A2A6B"/>
<path d="M104.083 202.066C104.606 200.639 105.617 199.333 106.911 198.263C108.227 197.212 109.851 196.405 111.649 195.979C113.431 195.564 115.408 195.405 117.202 195.941C118.975 196.453 120.601 197.415 121.531 198.764L121.4 198.886C119.78 198.244 118.267 197.783 116.701 197.535C115.158 197.309 113.581 197.045 111.986 197.269C110.406 197.482 108.863 198.052 107.535 198.895C106.184 199.717 105.058 200.832 104.262 202.128L104.083 202.066Z" fill="#0A2A6B"/>
<path d="M133.625 232.774C133.693 233.615 132.017 234.398 129.882 234.523C127.746 234.647 125.96 234.067 125.892 233.226C125.825 232.385 127.501 231.603 129.636 231.478C131.771 231.353 133.557 231.934 133.625 232.774Z" fill="#0A2A6B"/>
<path d="M121.465 359.269C87.7687 359.269 71.9512 348.031 71.9512 348.031C71.9512 348.031 57.0079 367.113 51.4046 386.514C45.8013 405.914 45.9333 428 45.9333 428H175.43C175.43 428 185.89 402.336 179.166 379C172.442 355.664 166.465 348.031 166.465 348.031C166.465 348.031 155.161 359.269 121.465 359.269Z" fill="#0A2A6B"/>
<path d="M1.34558 428H21.5187L47.3165 358.661C37.6971 358.038 27.9204 356.306 20.1567 351.829C10.5993 389.484 1.34558 428 1.34558 428Z" fill="#FF8775"/>
<path d="M211.592 240.355C213.518 238.319 215.323 236.346 216.932 234.492C231.841 217.318 243.772 200.808 243.772 200.808L223.418 196.415C223.418 196.415 204.896 208.956 189.204 221.387C197.032 226.248 206.591 233.292 211.592 240.355Z" fill="#FF8775"/>
<path d="M122.871 254.507C119.048 253.958 118.329 253.355 118.329 253.355L116.75 235.469L90.4773 219.255C90.4773 219.255 90.9352 247.85 88.9145 251.666C88.6108 252.24 87.4283 253.031 85.6239 254.001L120.146 294.107L122.871 254.507Z" fill="#FF8775"/>
<path d="M211.592 240.355C206.59 233.292 197.032 226.248 189.204 221.387C182.749 226.501 152.147 248.676 139.321 252.954C132.715 255.158 126.931 255.09 122.871 254.507L120.146 294.107L85.6237 254.001C75.4251 259.486 45.2202 270.753 39.8235 281.562C36.8812 287.457 28.4055 319.322 20.1558 351.83C27.9194 356.307 37.6961 358.039 47.3156 358.662L62.9846 316.547L71.9502 348.032C71.9502 348.032 87.7676 359.27 121.464 359.27C155.16 359.27 166.464 348.032 166.464 348.032C166.464 348.032 161.608 320.681 163.848 312.094C166.089 303.508 172.441 300.963 173.561 293.33C174.682 285.698 170.946 278.701 170.946 278.701C170.946 278.701 195.671 257.191 211.592 240.355Z" fill="#2C54AC"/>
<path d="M243.773 200.808C243.773 200.808 220.873 195.006 198.423 191.39C175.973 187.774 162.633 183.94 162.633 183.94L150.374 170.261C149.055 168.79 147.134 167.796 144.992 167.478L141.169 166.909L139.126 164.646C137.491 162.835 134.96 161.773 132.278 161.773H129.759L124.521 160.473C122.508 159.974 120.356 160.111 118.458 160.867C113.727 162.75 105.293 166.439 107.405 168.046C110.303 170.25 116.751 166.914 116.751 166.914C116.751 166.914 113.406 170.13 115.874 171.571C118.342 173.013 128.921 169.17 128.921 169.17C128.921 169.17 123.285 172.412 125.538 173.853C127.792 175.294 144.974 172.918 144.974 172.918C144.974 172.918 150.122 177.874 153.112 183.586C156.103 189.299 157.554 194.043 157.554 194.043C164.889 195.108 230.449 218.385 230.449 218.385L243.773 200.808Z" fill="#FF8775"/>
<path d="M142.24 166.933C139.492 167.411 136.741 167.642 134.081 168.157C131.416 168.654 128.848 169.41 126.441 170.625C127.408 169.759 128.588 169.055 129.863 168.529C131.135 167.99 132.494 167.618 133.872 167.351C136.64 166.845 139.453 166.764 142.24 166.933Z" fill="#0A2A6B"/>
<path d="M131.285 161.727C129.754 161.887 128.274 162.181 126.823 162.517C125.377 162.863 123.951 163.301 122.615 163.84C121.283 164.388 120.048 165.12 118.86 165.909C117.686 166.716 116.551 167.582 115.485 168.528C116.273 167.398 117.262 166.367 118.382 165.445C119.505 164.528 120.77 163.712 122.19 163.109C123.612 162.511 125.107 162.109 126.642 161.86C128.175 161.617 129.751 161.543 131.285 161.727Z" fill="#0A2A6B"/>
<path d="M134.34 384.941C131.007 388.318 127.5 391.547 123.957 394.745L124.189 394.333C123.909 397.152 123.613 399.97 123.262 402.782C122.935 405.597 122.536 408.405 122.135 411.212C121.723 414.019 121.275 416.823 120.777 419.622C120.28 422.42 119.738 425.215 119.089 428C119.157 425.162 119.332 422.333 119.55 419.508C119.768 416.684 120.037 413.864 120.341 411.047C120.656 408.232 120.973 405.416 121.362 402.607C121.726 399.796 122.147 396.99 122.583 394.185L122.622 393.927L122.815 393.773C126.575 390.759 130.371 387.776 134.34 384.941Z" fill="white"/>
<path d="M85.6238 254L120.146 294.107L122.871 254.507L127.481 254.701L123.16 305.134L81.2651 256.166L85.6238 254Z" fill="#0A2A6B"/>
<path d="M171.676 280.715C170.434 278.725 169.186 276.751 167.852 274.821C166.509 272.896 165.133 270.991 163.66 269.14C162.206 267.278 160.659 265.471 159.076 263.683C158.281 262.791 157.464 261.912 156.632 261.043L155.387 259.733C154.958 259.307 154.537 258.873 154.121 258.434C155.115 259.179 156.047 259.979 156.988 260.775C157.897 261.595 158.785 262.433 159.656 263.284C161.39 264.994 162.977 266.809 164.465 268.68C165.934 270.563 167.305 272.502 168.504 274.517C169.711 276.526 170.799 278.588 171.676 280.715Z" fill="#0A2A6B"/>
<path d="M60.1995 323.838C61.0046 321.243 61.9447 318.683 62.9303 316.136C63.9062 313.586 64.9869 311.067 66.0977 308.558C67.2307 306.056 68.3977 303.564 69.6637 301.109L71.5894 297.436C72.2733 296.227 72.932 295.01 73.6547 293.818C73.1338 295.084 72.5624 296.332 72.0279 297.593L70.3544 301.349L67.0028 308.853L63.6288 316.349C62.4996 318.846 61.3849 321.351 60.1995 323.838Z" fill="#0A2A6B"/>
<path d="M117.918 247.753C105.496 244.082 100.474 235.926 100.474 235.926C100.474 235.926 102.308 239.88 105.78 243.394C108.54 246.186 113.964 249.1 118.074 250.138L117.918 247.753Z" fill="#0A2A6B"/>
<path d="M93.0634 223.804C93.0634 225.576 91.3754 227.013 89.2936 227.013C87.2118 227.013 85.5238 225.576 85.5238 223.804C85.5238 222.032 87.2118 220.595 89.2936 220.595C91.3754 220.595 93.0634 222.032 93.0634 223.804Z" fill="white"/>
<path d="M147.634 198.075C146.23 198.318 144.821 198.516 143.416 198.741L139.198 199.346C137.793 199.543 136.411 199.889 134.989 199.915C133.566 199.951 132.14 199.934 130.654 199.67L130.624 199.507C131.951 198.869 133.35 198.533 134.754 198.274C136.16 198.007 137.609 198.086 139.037 198.031L143.324 197.918C144.756 197.914 146.183 197.89 147.616 197.91L147.634 198.075Z" fill="#0A2A6B"/>
<path d="M198.852 207.336C201.093 207.929 203.297 208.605 205.494 209.296C207.704 209.966 209.853 210.754 212.043 211.395C214.234 212.057 216.461 212.645 218.684 213.253L225.385 215.039C224.22 214.907 223.071 214.707 221.916 214.527C220.769 214.318 219.625 214.096 218.483 213.864C216.201 213.398 213.947 212.826 211.721 212.173C209.492 211.498 207.35 210.687 205.213 209.881C203.076 209.069 200.945 208.244 198.852 207.336Z" fill="#0A2A6B"/>
</svg>
